# xmcd CD database file
#
# Track frame offsets:
#	150
#	11128
#	23443
#	53876
#	62555
#	80385
#	103775
#	113863
#	131561
#	146934
#	158487
#
# Disc length: 2268 seconds
#
# Revision: 0
# Processed by: cddbd v1.5.2PL0 Copyright (c) Steve Scherf et al.
# Submitted via: CDex 1.51
#
DISCID=8b08da0b
DTITLE=timeless - Timeless
DYEAR=2006
DGENRE=Jazz
TTITLE0=I don't know enough about you
TTITLE1=As time goes by
TTITLE2=Tea for two
TTITLE3=You and the night and the music
TTITLE4=Nice work if you can get it
TTITLE5=More than you know
TTITLE6=Blue skies
TTITLE7=So many stars
TTITLE8=On the street where you live
TTITLE9=Crazy he calls me
TTITLE10=Wrap your troubles in dreams
EXTD=YEAR: 2006
EXTT0=
EXTT1=
EXTT2=
EXTT3=
EXTT4=
EXTT5=
EXTT6=
EXTT7=
EXTT8=
EXTT9=
EXTT10=
PLAYORDER=
